<svg xmlns="http://www.w3.org/2000/svg" viewBox="0 0 1280 1280">
  <path fill="#fff" d="M815.59 94.71c10.12 12.36 18 26.93 26.38 45.54C890.73 257.62 942.74 410.44 984 553.06c41.26 142.62 72.98 275.3 86.87 371.58 6.94 48.14 9.25 87.44 7.44 117.25-1.81 29.81-7.49 50.21-15.69 62.09-8.2 11.87-18.93 15.46-29.82 13.15-10.89-2.31-22.02-10.49-32.62-24.5-21.2-28.02-41.34-76.76-55.35-130.16-14.01-53.4-21.97-111.28-22.08-157.78-.11-46.5 7.52-81.47 18.33-96.92 10.81-15.45 24.73-11.42 35.44 11.87 10.71 23.29 18.14 65.7 18.41 115.1.27 49.4-6.59 105.71-16.11 153.81-4.76 24.05-10.4 46.37-16.11 65.7"/>
  <path fill="#ff5d01" d="M906.99 992.77c-4.61-14.53-9.33-29.97-13.96-46.11-3.86-13.43-7.67-27.25-11.4-41.38-48.34-183.19-80.73-385.22-136.74-577.47-9.03-30.91-18.93-61.53-30.05-91.41-5.56-14.94-11.5-29.63-17.98-43.88-6.48-14.25-13.51-28.05-21.35-41.14-7.84-13.09-16.48-25.46-26.22-36.83-9.74-11.37-20.57-21.73-32.79-30.73-12.22-9-25.82-16.62-41.09-22.49-15.27-5.87-32.18-9.98-51.03-12.04-18.85-2.06-39.6-2.06-62.55.2-22.95 2.26-48.06 6.79-75.63 13.8-27.57 7.01-57.58 16.5-90.34 28.68-32.76 12.18-68.26 27.04-106.8 44.81-38.54 17.77-80.1 38.44-124.98 62.23-44.88 23.79-93.06 50.69-144.84 80.92-12.94 7.56-26.06 15.26-39.34 23.1 34.08-12.93 69.48-25.13 106.13-36.49 54.64-16.93 111.96-31.73 171.6-44.16 59.64-12.43 121.6-22.5 185.52-29.99 63.92-7.49 129.81-12.41 197.32-14.62 67.51-2.21 136.64-1.72 207.04 1.53 70.4 3.25 142.07 9.26 214.65 18.09 72.58 8.83 146.07 20.47 220.12 35 74.05 14.53 148.66 31.94 223.48 52.3-12.94-20.7-28.36-40.69-46.08-59.81-17.72-19.12-37.75-37.36-59.86-54.57-22.11-17.21-46.31-33.38-72.35-48.35-26.04-14.97-53.93-28.73-83.43-41.13-29.5-12.4-60.62-23.43-93.12-32.94-32.5-9.51-66.38-17.5-101.4-23.8-35.02-6.3-71.17-10.92-108.3-13.7-37.13-2.78-75.23-3.73-114.15-2.7-38.92 1.03-78.65 4.05-119.05 9.13-40.4 5.08-81.45 12.22-122.99 21.49-41.54 9.27-83.56 20.66-125.91 34.24-42.35 13.58-85.02 29.34-127.86 47.35-42.84 18.01-85.84 38.26-128.84 60.82-43 22.56-85.99 47.42-128.82 74.64-42.83 27.22-85.49 56.79-127.82 88.77-42.33 31.98-84.32 66.36-125.81 103.2-41.49 36.84-82.47 76.13-122.78 117.93-40.31 41.8-79.95 86.1-118.76 132.95-38.81 46.85-76.79 96.24-113.78 148.22-37 51.98-73.01 106.55-107.87 163.76-34.86 57.21-68.57 117.07-100.97 179.62-32.4 62.55-63.49 127.8-92.99 195.79-29.5 67.99-57.41 138.73-83.47 212.26-26.06 73.53-50.27 149.86-72.36 229.03-22.09 79.17-42.06 161.18-59.64 246.07-17.58 84.89-32.77 172.66-45.29 263.34-12.52 90.68-22.37 184.27-29.28 280.8-6.91 96.53-10.89 195.99-11.66 298.4-.77 102.41 1.67 207.76 7.49 316.07 5.82 108.31 15.02 219.57 27.78 333.79 12.76 114.22 29.08 231.39 49.14 351.52 20.06 120.13 43.86 243.21 71.56 369.25 27.7 126.04 59.3 255.03 94.98 386.98 35.68 131.95 75.44 266.85 119.45 404.71 44.01 137.86 92.27 278.67 144.96 422.44 52.69 143.77 109.81 290.49 171.54 440.17 61.73 149.68 128.07 302.31 199.19 457.9 71.12 155.59 147.02 314.13 227.88 475.63 80.86 161.5 166.68 325.95 257.63 493.36 90.95 167.41 187.03 337.77 288.4 511.09 101.37 173.32 208.03 349.59 320.16 528.82 112.13 179.23 229.73 361.41 353.97 546.55 124.24 185.14 255.12 373.23 392.82 564.28 137.7 191.05 282.22 385.05 433.74 582"/>
</svg>
