<svg xmlns="http://www.w3.org/2000/svg" viewBox="0 0 256 256">
  <path fill="#F7DF1E" d="M0 0h256v256H0z"/>
  <path d="M67.31 213.93l19.59-11.86c3.78 6.7 7.22 12.37 15.48 12.37 7.91 0 12.89-3.1 12.89-15.12v-81.8h24.05v82.14c0 24.94-14.61 36.29-35.93 36.29-19.25 0-30.42-9.97-36.08-21.99m85.13-2.58l19.59-11.34c5.16 8.43 11.86 14.61 23.73 14.61 9.97 0 16.32-4.98 16.32-11.86 0-8.25-6.53-11.17-17.53-15.99l-6.01-2.58c-17.36-7.39-28.87-16.66-28.87-36.26 0-18.04 13.75-31.79 35.22-31.79 15.3 0 26.3 5.33 34.21 19.25l-18.73 12.03c-4.13-7.39-8.59-10.31-15.48-10.31-7.05 0-11.52 4.47-11.52 10.31 0 7.22 4.47 10.14 14.79 14.61l6.01 2.58c20.44 8.77 31.96 17.7 31.96 37.8 0 21.65-17.01 33.51-39.87 33.51-22.33 0-36.77-10.65-43.83-24.57"/>
</svg>

