<svg width="297" height="104" viewBox="0 0 297 104" fill="none" xmlns="http://www.w3.org/2000/svg">
<g filter="url(#filter0_d_1_3)">
<mask id="path-1-outside-1_1_3" maskUnits="userSpaceOnUse" x="4" y="0" width="289" height="96" fill="black">
<rect fill="white" x="4" width="289" height="96"/>
<path d="M71.5 54.8125L81 78.0625L89.625 80.25V93H63.125L51.8125 60.1875L36.875 60V78.1875L46.3125 80.1875V93H5.5V80.1875L14.9375 78.1875V16.875L5.5 14.875V1.9375H50.25C57.5 1.9375 63.75 3.08333 69 5.375C74.2917 7.66667 78.375 10.9375 81.25 15.1875C84.125 19.3958 85.5625 24.3958 85.5625 30.1875C85.5625 35.5208 84.125 40.4792 81.25 45.0625C80 46.9792 78.5625 48.7708 76.9375 50.4375C75.3125 52.1042 73.5 53.5625 71.5 54.8125ZM36.875 18.75V43.1875H50.5C54.75 43.1875 58.0208 42.2083 60.3125 40.25C62.6042 38.25 63.75 35.375 63.75 31.625C63.75 27.75 62.5833 24.6458 60.25 22.3125C57.9167 19.9375 54.5833 18.75 50.25 18.75H36.875ZM128.688 94.3125C121.729 94.3125 115.792 92.8542 110.875 89.9375C105.958 87.0625 102.188 83.0417 99.5625 77.875C96.9375 72.6667 95.625 66.6458 95.625 59.8125V58.5625C95.625 51.8125 96.9375 45.8542 99.5625 40.6875C102.146 35.5208 105.896 31.4792 110.812 28.5625C115.729 25.6042 121.646 24.125 128.562 24.125C135.521 24.125 141.458 25.5833 146.375 28.5C151.25 31.4167 154.979 35.4583 157.562 40.625C160.188 45.7917 161.5 51.7708 161.5 58.5625V59.8125C161.5 66.5208 160.208 72.5 157.625 77.75C155 82.9167 151.229 86.9792 146.312 89.9375C141.438 92.8542 135.562 94.3125 128.688 94.3125ZM128.688 77.625C131.312 77.625 133.458 76.8958 135.125 75.4375C136.708 73.9792 137.854 71.9375 138.562 69.3125C139.312 66.6458 139.688 63.4792 139.688 59.8125V58.5625C139.688 55.1042 139.333 52 138.625 49.25C137.875 46.625 136.688 44.5833 135.062 43.125C133.438 41.625 131.271 40.875 128.562 40.875C125.938 40.875 123.792 41.6042 122.125 43.0625C120.5 44.5625 119.333 46.6458 118.625 49.3125C117.917 51.9375 117.562 55.0208 117.562 58.5625V59.8125C117.562 63.4375 117.917 66.625 118.625 69.375C119.333 72.0417 120.5 74.0833 122.125 75.5C123.75 76.9167 125.938 77.625 128.688 77.625ZM198.75 94.3125C193.417 94.3125 188.438 93.8333 183.812 92.875C179.229 91.875 175.083 90.5208 171.375 88.8125L171.125 67.75H185.938L188.438 77.5625C189.312 78.1042 190.438 78.5833 191.812 79C193.188 79.375 194.833 79.5625 196.75 79.5625C200.292 79.5625 202.729 79.0833 204.062 78.125C205.396 77.1667 206.062 75.9583 206.062 74.5C206.062 73.0417 205.312 71.7292 203.812 70.5625C202.312 69.4375 199.062 68.3958 194.062 67.4375C186.146 65.8958 180.312 63.2708 176.562 59.5625C172.812 55.8125 170.938 51.1458 170.938 45.5625C170.938 41.7292 171.812 38.2292 173.562 35.0625C175.312 31.8542 178.167 29.2708 182.125 27.3125C186.125 25.3125 191.458 24.3125 198.125 24.3125C203.208 24.3125 208.042 24.75 212.625 25.625C217.25 26.5 221.042 27.6042 224 28.9375L223.938 49.3125H209.188L207.312 40.5625C205.354 39.2292 202.917 38.5625 200 38.5625C197.208 38.5625 195.167 39.0625 193.875 40.0625C192.583 41.0625 191.938 42.3542 191.938 43.9375C191.938 44.8125 192.229 45.7292 192.812 46.6875C193.438 47.7292 194.708 48.6667 196.625 49.5C198.542 50.3333 200.812 51.0417 203.438 51.625C211.146 53.3333 216.938 55.7083 220.812 58.75C224.729 61.7917 226.688 66.4167 226.688 72.625C226.688 79.2917 224.292 84.5833 219.5 88.5C214.75 92.375 207.833 94.3125 198.75 94.3125ZM263.875 94.3125C258.542 94.3125 253.562 93.8333 248.938 92.875C244.354 91.875 240.208 90.5208 236.5 88.8125L236.25 67.75H251.062L253.562 77.5625C254.438 78.1042 255.562 78.5833 256.938 79C258.312 79.375 259.958 79.5625 261.875 79.5625C265.417 79.5625 267.854 79.0833 269.188 78.125C270.521 77.1667 271.188 75.9583 271.188 74.5C271.188 73.0417 270.438 71.7292 268.938 70.5625C267.438 69.4375 264.188 68.3958 259.188 67.4375C251.271 65.8958 245.438 63.2708 241.688 59.5625C237.938 55.8125 236.062 51.1458 236.062 45.5625C236.062 41.7292 236.938 38.2292 238.688 35.0625C240.438 31.8542 243.292 29.2708 247.25 27.3125C251.25 25.3125 256.583 24.3125 263.25 24.3125C268.333 24.3125 273.167 24.75 277.75 25.625C282.375 26.5 286.167 27.6042 289.125 28.9375L289.062 49.3125H274.312L272.438 40.5625C270.479 39.2292 268.042 38.5625 265.125 38.5625C262.333 38.5625 260.292 39.0625 259 40.0625C257.708 41.0625 257.062 42.3542 257.062 43.9375C257.062 44.8125 257.354 45.7292 257.938 46.6875C258.562 47.7292 259.833 48.6667 261.75 49.5C263.667 50.3333 265.938 51.0417 268.562 51.625C276.271 53.3333 282.062 55.7083 285.938 58.75C289.854 61.7917 291.812 66.4167 291.812 72.625C291.812 79.2917 289.417 84.5833 284.625 88.5C279.875 92.375 272.958 94.3125 263.875 94.3125Z"/>
</mask>
<path d="M71.5 54.8125L81 78.0625L89.625 80.25V93H63.125L51.8125 60.1875L36.875 60V78.1875L46.3125 80.1875V93H5.5V80.1875L14.9375 78.1875V16.875L5.5 14.875V1.9375H50.25C57.5 1.9375 63.75 3.08333 69 5.375C74.2917 7.66667 78.375 10.9375 81.25 15.1875C84.125 19.3958 85.5625 24.3958 85.5625 30.1875C85.5625 35.5208 84.125 40.4792 81.25 45.0625C80 46.9792 78.5625 48.7708 76.9375 50.4375C75.3125 52.1042 73.5 53.5625 71.5 54.8125ZM36.875 18.75V43.1875H50.5C54.75 43.1875 58.0208 42.2083 60.3125 40.25C62.6042 38.25 63.75 35.375 63.75 31.625C63.75 27.75 62.5833 24.6458 60.25 22.3125C57.9167 19.9375 54.5833 18.75 50.25 18.75H36.875ZM128.688 94.3125C121.729 94.3125 115.792 92.8542 110.875 89.9375C105.958 87.0625 102.188 83.0417 99.5625 77.875C96.9375 72.6667 95.625 66.6458 95.625 59.8125V58.5625C95.625 51.8125 96.9375 45.8542 99.5625 40.6875C102.146 35.5208 105.896 31.4792 110.812 28.5625C115.729 25.6042 121.646 24.125 128.562 24.125C135.521 24.125 141.458 25.5833 146.375 28.5C151.25 31.4167 154.979 35.4583 157.562 40.625C160.188 45.7917 161.5 51.7708 161.5 58.5625V59.8125C161.5 66.5208 160.208 72.5 157.625 77.75C155 82.9167 151.229 86.9792 146.312 89.9375C141.438 92.8542 135.562 94.3125 128.688 94.3125ZM128.688 77.625C131.312 77.625 133.458 76.8958 135.125 75.4375C136.708 73.9792 137.854 71.9375 138.562 69.3125C139.312 66.6458 139.688 63.4792 139.688 59.8125V58.5625C139.688 55.1042 139.333 52 138.625 49.25C137.875 46.625 136.688 44.5833 135.062 43.125C133.438 41.625 131.271 40.875 128.562 40.875C125.938 40.875 123.792 41.6042 122.125 43.0625C120.5 44.5625 119.333 46.6458 118.625 49.3125C117.917 51.9375 117.562 55.0208 117.562 58.5625V59.8125C117.562 63.4375 117.917 66.625 118.625 69.375C119.333 72.0417 120.5 74.0833 122.125 75.5C123.75 76.9167 125.938 77.625 128.688 77.625ZM198.75 94.3125C193.417 94.3125 188.438 93.8333 183.812 92.875C179.229 91.875 175.083 90.5208 171.375 88.8125L171.125 67.75H185.938L188.438 77.5625C189.312 78.1042 190.438 78.5833 191.812 79C193.188 79.375 194.833 79.5625 196.75 79.5625C200.292 79.5625 202.729 79.0833 204.062 78.125C205.396 77.1667 206.062 75.9583 206.062 74.5C206.062 73.0417 205.312 71.7292 203.812 70.5625C202.312 69.4375 199.062 68.3958 194.062 67.4375C186.146 65.8958 180.312 63.2708 176.562 59.5625C172.812 55.8125 170.938 51.1458 170.938 45.5625C170.938 41.7292 171.812 38.2292 173.562 35.0625C175.312 31.8542 178.167 29.2708 182.125 27.3125C186.125 25.3125 191.458 24.3125 198.125 24.3125C203.208 24.3125 208.042 24.75 212.625 25.625C217.25 26.5 221.042 27.6042 224 28.9375L223.938 49.3125H209.188L207.312 40.5625C205.354 39.2292 202.917 38.5625 200 38.5625C197.208 38.5625 195.167 39.0625 193.875 40.0625C192.583 41.0625 191.938 42.3542 191.938 43.9375C191.938 44.8125 192.229 45.7292 192.812 46.6875C193.438 47.7292 194.708 48.6667 196.625 49.5C198.542 50.3333 200.812 51.0417 203.438 51.625C211.146 53.3333 216.938 55.7083 220.812 58.75C224.729 61.7917 226.688 66.4167 226.688 72.625C226.688 79.2917 224.292 84.5833 219.5 88.5C214.75 92.375 207.833 94.3125 198.75 94.3125ZM263.875 94.3125C258.542 94.3125 253.562 93.8333 248.938 92.875C244.354 91.875 240.208 90.5208 236.5 88.8125L236.25 67.75H251.062L253.562 77.5625C254.438 78.1042 255.562 78.5833 256.938 79C258.312 79.375 259.958 79.5625 261.875 79.5625C265.417 79.5625 267.854 79.0833 269.188 78.125C270.521 77.1667 271.188 75.9583 271.188 74.5C271.188 73.0417 270.438 71.7292 268.938 70.5625C267.438 69.4375 264.188 68.3958 259.188 67.4375C251.271 65.8958 245.438 63.2708 241.688 59.5625C237.938 55.8125 236.062 51.1458 236.062 45.5625C236.062 41.7292 236.938 38.2292 238.688 35.0625C240.438 31.8542 243.292 29.2708 247.25 27.3125C251.25 25.3125 256.583 24.3125 263.25 24.3125C268.333 24.3125 273.167 24.75 277.75 25.625C282.375 26.5 286.167 27.6042 289.125 28.9375L289.062 49.3125H274.312L272.438 40.5625C270.479 39.2292 268.042 38.5625 265.125 38.5625C262.333 38.5625 260.292 39.0625 259 40.0625C257.708 41.0625 257.062 42.3542 257.062 43.9375C257.062 44.8125 257.354 45.7292 257.938 46.6875C258.562 47.7292 259.833 48.6667 261.75 49.5C263.667 50.3333 265.938 51.0417 268.562 51.625C276.271 53.3333 282.062 55.7083 285.938 58.75C289.854 61.7917 291.812 66.4167 291.812 72.625C291.812 79.2917 289.417 84.5833 284.625 88.5C279.875 92.375 272.958 94.3125 263.875 94.3125Z" fill="black" fill-opacity="0.2" shape-rendering="crispEdges"/>
<path d="M71.5 54.8125L70.97 53.9645L70.2557 54.411L70.5743 55.1907L71.5 54.8125ZM81 78.0625L80.0743 78.4407L80.2651 78.9078L80.7542 79.0318L81 78.0625ZM89.625 80.25H90.625V79.472L89.8708 79.2807L89.625 80.25ZM89.625 93V94H90.625V93H89.625ZM63.125 93L62.1796 93.3259L62.412 94H63.125V93ZM51.8125 60.1875L52.7579 59.8616L52.5286 59.1964L51.8251 59.1876L51.8125 60.1875ZM36.875 60L36.8876 59.0001L35.875 58.9874V60H36.875ZM36.875 78.1875H35.875V78.9978L36.6677 79.1658L36.875 78.1875ZM46.3125 80.1875H47.3125V79.3772L46.5198 79.2092L46.3125 80.1875ZM46.3125 93V94H47.3125V93H46.3125ZM5.5 93H4.5V94H5.5V93ZM5.5 80.1875L5.29268 79.2092L4.5 79.3772V80.1875H5.5ZM14.9375 78.1875L15.1448 79.1658L15.9375 78.9978V78.1875H14.9375ZM14.9375 16.875H15.9375V16.0647L15.1448 15.8967L14.9375 16.875ZM5.5 14.875H4.5V15.6853L5.29268 15.8533L5.5 14.875ZM5.5 1.9375V0.9375H4.5V1.9375H5.5ZM69 5.375L68.5999 6.29149L68.6026 6.29264L69 5.375ZM81.25 15.1875L80.4217 15.7478L80.4243 15.7516L81.25 15.1875ZM81.25 45.0625L82.0876 45.6088L82.0924 45.6014L82.0971 45.5939L81.25 45.0625ZM36.875 18.75V17.75H35.875V18.75H36.875ZM36.875 43.1875H35.875V44.1875H36.875V43.1875ZM60.3125 40.25L60.9622 41.0103L60.97 41.0034L60.3125 40.25ZM60.25 22.3125L59.5366 23.0133L59.5429 23.0196L60.25 22.3125ZM70.5743 55.1907L80.0743 78.4407L81.9257 77.6843L72.4257 54.4343L70.5743 55.1907ZM80.7542 79.0318L89.3792 81.2193L89.8708 79.2807L81.2458 77.0932L80.7542 79.0318ZM88.625 80.25V93H90.625V80.25H88.625ZM89.625 92H63.125V94H89.625V92ZM64.0704 92.6741L52.7579 59.8616L50.8671 60.5134L62.1796 93.3259L64.0704 92.6741ZM51.8251 59.1876L36.8876 59.0001L36.8624 60.9999L51.7999 61.1874L51.8251 59.1876ZM35.875 60V78.1875H37.875V60H35.875ZM36.6677 79.1658L46.1052 81.1658L46.5198 79.2092L37.0823 77.2092L36.6677 79.1658ZM45.3125 80.1875V93H47.3125V80.1875H45.3125ZM46.3125 92H5.5V94H46.3125V92ZM6.5 93V80.1875H4.5V93H6.5ZM5.70732 81.1658L15.1448 79.1658L14.7302 77.2092L5.29268 79.2092L5.70732 81.1658ZM15.9375 78.1875V16.875H13.9375V78.1875H15.9375ZM15.1448 15.8967L5.70732 13.8967L5.29268 15.8533L14.7302 17.8533L15.1448 15.8967ZM6.5 14.875V1.9375H4.5V14.875H6.5ZM5.5 2.9375H50.25V0.9375H5.5V2.9375ZM50.25 2.9375C57.3976 2.9375 63.5049 4.06745 68.5999 6.29149L69.4001 4.45851C63.9951 2.09921 57.6024 0.9375 50.25 0.9375V2.9375ZM68.6026 6.29264C73.7418 8.5183 77.6662 11.6745 80.4217 15.7478L82.0783 14.6272C79.0838 10.2005 74.8415 6.81503 69.3974 4.45736L68.6026 6.29264ZM80.4243 15.7516C83.1707 19.7717 84.5625 24.5687 84.5625 30.1875H86.5625C86.5625 24.2229 85.0793 19.0199 82.0757 14.6234L80.4243 15.7516ZM84.5625 30.1875C84.5625 35.33 83.1795 40.1046 80.4029 44.5311L82.0971 45.5939C85.0705 40.8537 86.5625 35.7117 86.5625 30.1875H84.5625ZM80.4124 44.5162C79.1985 46.3775 77.8019 48.1185 76.2215 49.7394L77.6535 51.1356C79.3231 49.4232 80.8015 47.5808 82.0876 45.6088L80.4124 44.5162ZM76.2215 49.7394C74.653 51.3481 72.9031 52.7563 70.97 53.9645L72.03 55.6605C74.0969 54.3687 75.972 52.8602 77.6535 51.1356L76.2215 49.7394ZM35.875 18.75V43.1875H37.875V18.75H35.875ZM36.875 44.1875H50.5V42.1875H36.875V44.1875ZM50.5 44.1875C54.8916 44.1875 58.4275 43.1762 60.9622 41.0102L59.6628 39.4898C57.6142 41.2404 54.6084 42.1875 50.5 42.1875V44.1875ZM60.97 41.0034C63.5288 38.7703 64.75 35.5908 64.75 31.625H62.75C62.75 35.1592 61.6795 37.7297 59.655 39.4966L60.97 41.0034ZM64.75 31.625C64.75 27.5346 63.5105 24.1588 60.9571 21.6054L59.5429 23.0196C61.6562 25.1329 62.75 27.9654 62.75 31.625H64.75ZM60.9633 21.6117C58.39 18.9924 54.7671 17.75 50.25 17.75V19.75C54.3996 19.75 57.4433 20.8826 59.5367 23.0133L60.9633 21.6117ZM50.25 17.75H36.875V19.75H50.25V17.75ZM110.875 89.9375L111.385 89.0774L111.38 89.0743L110.875 89.9375ZM99.5625 77.875L98.6695 78.3251L98.671 78.328L99.5625 77.875ZM99.5625 40.6875L100.454 41.1405L100.457 41.1347L99.5625 40.6875ZM110.812 28.5625L111.323 29.4226L111.328 29.4194L110.812 28.5625ZM146.375 28.5L146.888 27.6419L146.885 27.6399L146.375 28.5ZM157.562 40.625L156.668 41.0722L156.671 41.078L157.562 40.625ZM157.625 77.75L158.517 78.203L158.522 78.1915L157.625 77.75ZM146.312 89.9375L146.826 90.7956L146.828 90.7944L146.312 89.9375ZM135.125 75.4375L135.784 76.1901L135.793 76.1817L135.802 76.173L135.125 75.4375ZM138.562 69.3125L137.6 69.0417L137.597 69.052L138.562 69.3125ZM138.625 49.25L139.593 49.0006L139.59 48.9879L139.587 48.9753L138.625 49.25ZM135.062 43.125L134.384 43.8599L134.395 43.8692L135.062 43.125ZM122.125 43.0625L121.466 42.3099L121.456 42.3187L121.447 42.3277L122.125 43.0625ZM118.625 49.3125L119.59 49.573L119.591 49.5692L118.625 49.3125ZM118.625 69.375L117.657 69.6244L117.659 69.6317L118.625 69.375ZM128.688 93.3125C121.87 93.3125 116.117 91.8845 111.385 89.0774L110.365 90.7976C115.466 93.8238 121.589 95.3125 128.688 95.3125V93.3125ZM111.38 89.0743C106.632 86.2979 102.994 82.4209 100.454 77.422L98.671 78.328C101.381 83.6625 105.285 87.8271 110.37 90.8007L111.38 89.0743ZM100.455 77.4249C97.912 72.3783 96.625 66.5163 96.625 59.8125H94.625C94.625 66.7754 95.963 72.9551 98.6695 78.3251L100.455 77.4249ZM96.625 59.8125V58.5625H94.625V59.8125H96.625ZM96.625 58.5625C96.625 51.944 97.9112 46.1454 100.454 41.1405L98.671 40.2345C95.9638 45.563 94.625 51.681 94.625 58.5625H96.625ZM100.457 41.1347C102.955 36.1378 106.573 32.2402 111.323 29.4226L110.302 27.7024C105.219 30.7181 101.336 34.9039 98.6681 40.2403L100.457 41.1347ZM111.328 29.4194C116.06 26.5723 121.79 25.125 128.562 25.125V23.125C121.502 23.125 115.398 24.6361 110.297 27.7056L111.328 29.4194ZM128.562 25.125C135.38 25.125 141.133 26.553 145.865 29.3601L146.885 27.6399C141.784 24.6137 135.661 23.125 128.562 23.125V25.125ZM145.862 29.3581C150.57 32.1752 154.168 36.073 156.668 41.0722L158.457 40.1778C155.79 34.8437 151.93 30.6581 146.888 27.6419L145.862 29.3581ZM156.671 41.078C159.213 46.082 160.5 51.9012 160.5 58.5625H162.5C162.5 51.6404 161.162 45.5013 158.454 40.172L156.671 41.078ZM160.5 58.5625V59.8125H162.5V58.5625H160.5ZM160.5 59.8125C160.5 66.3902 159.234 72.2147 156.728 77.3085L158.522 78.1915C161.182 72.7853 162.5 66.6514 162.5 59.8125H160.5ZM156.733 77.297C154.193 82.2982 150.551 86.22 145.797 89.0806L146.828 90.7944C151.907 87.7383 155.807 83.5351 158.517 78.203L156.733 77.297ZM145.799 89.0794C141.109 91.8854 135.42 93.3125 128.688 93.3125V95.3125C135.705 95.3125 141.766 93.8229 146.826 90.7956L145.799 89.0794ZM128.688 78.625C131.507 78.625 133.902 77.8365 135.784 76.1901L134.466 74.6849C133.015 75.9551 131.118 76.625 128.688 76.625V78.625ZM135.802 76.173C137.557 74.557 138.783 72.3328 139.528 69.573L137.597 69.052C136.925 71.5422 135.86 73.4013 134.448 74.702L135.802 76.173ZM139.525 69.5832C140.306 66.8053 140.688 63.543 140.688 59.8125H138.688C138.688 63.4153 138.319 66.4864 137.6 69.0418L139.525 69.5832ZM140.688 59.8125V58.5625H138.688V59.8125H140.688ZM140.688 58.5625C140.688 55.0376 140.327 51.8475 139.593 49.0006L137.657 49.4994C138.34 52.1525 138.688 55.1708 138.688 58.5625H140.688ZM139.587 48.9753C138.798 46.2144 137.527 43.9929 135.73 42.3808L134.395 43.8692C135.848 45.1738 136.952 47.0356 137.663 49.5247L139.587 48.9753ZM135.741 42.3902C133.892 40.6833 131.463 39.875 128.562 39.875V41.875C131.079 41.875 132.983 42.5667 134.384 43.8598L135.741 42.3902ZM128.562 39.875C125.743 39.875 123.348 40.6635 121.466 42.3099L122.784 43.8151C124.235 42.5449 126.132 41.875 128.562 41.875V39.875ZM121.447 42.3277C119.651 43.985 118.404 46.2509 117.659 49.0558L119.591 49.5692C120.263 47.0407 121.349 45.14 122.803 43.7973L121.447 42.3277ZM117.66 49.052C116.923 51.7831 116.562 54.9578 116.562 58.5625H118.562C118.562 55.0838 118.911 52.0919 119.59 49.573L117.66 49.052ZM116.562 58.5625V59.8125H118.562V58.5625H116.562ZM116.562 59.8125C116.562 63.4997 116.922 66.7741 117.657 69.6244L119.593 69.1256C118.911 66.4759 118.562 63.3753 118.562 59.8125H116.562ZM117.659 69.6317C118.404 72.4375 119.655 74.6737 121.468 76.2538L122.782 74.7462C121.345 73.493 120.263 71.6458 119.591 69.1183L117.659 69.6317ZM121.468 76.2538C123.321 77.8691 125.764 78.625 128.688 78.625V76.625C126.111 76.625 124.179 75.9643 122.782 74.7462L121.468 76.2538ZM183.812 92.875L183.599 93.8521L183.61 93.8542L183.812 92.875ZM171.375 88.8125L170.375 88.8244L170.383 89.4563L170.957 89.7208L171.375 88.8125ZM171.125 67.75V66.75H170.113L170.125 67.7619L171.125 67.75ZM185.938 67.75L186.907 67.5031L186.715 66.75H185.938V67.75ZM188.438 77.5625L187.468 77.8094L187.568 78.2004L187.911 78.4128L188.438 77.5625ZM191.812 79L191.522 79.957L191.536 79.9611L191.549 79.9648L191.812 79ZM203.812 70.5625L204.426 69.7731L204.42 69.7678L204.412 69.7625L203.812 70.5625ZM194.062 67.4375L193.871 68.4191L193.874 68.4196L194.062 67.4375ZM176.562 59.5625L175.855 60.2696L175.859 60.2735L176.562 59.5625ZM173.562 35.0625L174.438 35.5462L174.44 35.5414L173.562 35.0625ZM182.125 27.3125L182.568 28.2088L182.572 28.2069L182.125 27.3125ZM212.625 25.625L212.437 26.6073L212.439 26.6076L212.625 25.625ZM224 28.9375L225 28.9406L225.002 28.2922L224.411 28.0258L224 28.9375ZM223.938 49.3125V50.3125H224.934L224.937 49.3156L223.938 49.3125ZM209.188 49.3125L208.21 49.522L208.379 50.3125H209.188V49.3125ZM207.312 40.5625L208.29 40.353L208.206 39.9613L207.875 39.7359L207.312 40.5625ZM192.812 46.6875L193.67 46.173L193.667 46.1676L192.812 46.6875ZM196.625 49.5L197.024 48.5829L197.024 48.5829L196.625 49.5ZM203.438 51.625L203.221 52.6012L203.221 52.6013L203.438 51.625ZM220.812 58.75L220.195 59.5366L220.199 59.5398L220.812 58.75ZM219.5 88.5L220.132 89.2749L220.133 89.2743L219.5 88.5ZM198.75 93.3125C193.476 93.3125 188.566 92.8387 184.015 91.8958L183.61 93.8542C188.309 94.828 193.357 95.3125 198.75 95.3125V93.3125ZM184.026 91.898C179.503 90.9112 175.427 89.5782 171.793 87.9042L170.957 89.7208C174.74 91.4635 178.956 92.8388 183.599 93.852L184.026 91.898ZM172.375 88.8006L172.125 67.7381L170.125 67.7619L170.375 88.8244L172.375 88.8006ZM171.125 68.75H185.938V66.75H171.125V68.75ZM184.968 67.9969L187.468 77.8094L189.407 77.3156L186.907 67.5031L184.968 67.9969ZM187.911 78.4128C188.883 79.0142 190.095 79.5243 191.522 79.957L192.103 78.043C190.78 77.6424 189.742 77.1942 188.964 76.7122L187.911 78.4128ZM191.549 79.9648C193.034 80.3696 194.773 80.5625 196.75 80.5625V78.5625C194.894 78.5625 193.341 78.3804 192.076 78.0352L191.549 79.9648ZM196.75 80.5625C200.307 80.5625 203.034 80.0959 204.646 78.937L203.479 77.313C202.425 78.0708 200.276 78.5625 196.75 78.5625V80.5625ZM204.646 78.937C206.203 77.8181 207.062 76.3244 207.062 74.5H205.062C205.062 75.5923 204.589 76.5152 203.479 77.313L204.646 78.937ZM207.062 74.5C207.062 72.644 206.09 71.0669 204.426 69.7731L203.199 71.3519C204.535 72.3914 205.062 73.4393 205.062 74.5H207.062ZM204.412 69.7625C203.528 69.0993 202.214 68.5169 200.555 67.9852C198.878 67.4477 196.773 66.9388 194.251 66.4554L193.874 68.4196C196.352 68.8945 198.372 69.3856 199.945 69.8898C201.536 70.3997 202.597 70.9007 203.213 71.3625L204.412 69.7625ZM194.254 66.4559C186.435 64.9334 180.819 62.3657 177.266 58.8515L175.859 60.2735C179.806 64.176 185.856 66.8583 193.871 68.4191L194.254 66.4559ZM177.27 58.8554C173.718 55.3037 171.938 50.8962 171.938 45.5625H169.938C169.938 51.3955 171.907 56.3213 175.855 60.2696L177.27 58.8554ZM171.938 45.5625C171.938 41.8879 172.774 38.5559 174.438 35.5462L172.687 34.5788C170.851 37.9024 169.938 41.5704 169.938 45.5625H171.938ZM174.44 35.5414C176.073 32.5484 178.755 30.0953 182.568 28.2088L181.682 26.4162C177.578 28.4464 174.552 31.1599 172.685 34.5836L174.44 35.5414ZM182.572 28.2069C186.382 26.302 191.544 25.3125 198.125 25.3125V23.3125C191.373 23.3125 185.868 24.323 181.678 26.4181L182.572 28.2069ZM198.125 25.3125C203.151 25.3125 207.921 25.7451 212.437 26.6073L212.813 24.6427C208.162 23.7549 203.266 23.3125 198.125 23.3125V25.3125ZM212.439 26.6076C217.018 27.4739 220.727 28.5592 223.589 29.8492L224.411 28.0258C221.356 26.6491 217.482 25.5261 212.811 24.6424L212.439 26.6076ZM223 28.9344L222.938 49.3094L224.937 49.3156L225 28.9406L223 28.9344ZM223.938 48.3125H209.188V50.3125H223.938V48.3125ZM210.165 49.103L208.29 40.353L206.335 40.772L208.21 49.522L210.165 49.103ZM207.875 39.7359C205.716 38.2658 203.071 37.5625 200 37.5625V39.5625C202.763 39.5625 204.992 40.1925 206.75 41.3891L207.875 39.7359ZM200 37.5625C197.129 37.5625 194.816 38.0693 193.263 39.2718L194.487 40.8532C195.517 40.0557 197.288 39.5625 200 39.5625V37.5625ZM193.263 39.2718C191.736 40.4542 190.938 42.0335 190.938 43.9375H192.938C192.938 42.6748 193.431 41.6708 194.487 40.8532L193.263 39.2718ZM190.938 43.9375C190.938 45.0409 191.306 46.136 191.958 47.2074L193.667 46.1676C193.152 45.3224 192.938 44.5841 192.938 43.9375H190.938ZM191.955 47.202C192.74 48.5105 194.241 49.5541 196.226 50.4171L197.024 48.5829C195.175 47.7793 194.135 46.9478 193.67 46.173L191.955 47.202ZM196.226 50.4171C198.215 51.2819 200.55 52.0077 203.221 52.6012L203.654 50.6488C201.075 50.0756 198.868 49.3848 197.024 48.5829L196.226 50.4171ZM203.221 52.6013C210.862 54.2946 216.488 56.6267 220.195 59.5366L221.43 57.9634C217.387 54.79 211.43 52.3721 203.654 50.6487L203.221 52.6013ZM220.199 59.5398C223.811 62.345 225.688 66.6398 225.688 72.625H227.688C227.688 66.1935 225.647 61.2383 221.426 57.9602L220.199 59.5398ZM225.688 72.625C225.688 79.0181 223.407 84.0152 218.867 87.7257L220.133 89.2743C225.177 85.1515 227.688 79.5653 227.688 72.625H225.688ZM218.868 87.7251C214.365 91.3988 207.71 93.3125 198.75 93.3125V95.3125C207.957 95.3125 215.135 93.3512 220.132 89.2749L218.868 87.7251ZM248.938 92.875L248.724 93.8521L248.735 93.8542L248.938 92.875ZM236.5 88.8125L235.5 88.8244L235.508 89.4563L236.082 89.7208L236.5 88.8125ZM236.25 67.75V66.75H235.238L235.25 67.7619L236.25 67.75ZM251.062 67.75L252.032 67.5031L251.84 66.75H251.062V67.75ZM253.562 77.5625L252.593 77.8094L252.693 78.2004L253.036 78.4128L253.562 77.5625ZM256.938 79L256.647 79.957L256.661 79.9611L256.674 79.9648L256.938 79ZM268.938 70.5625L269.551 69.7731L269.545 69.7678L269.538 69.7625L268.938 70.5625ZM259.188 67.4375L258.996 68.4191L258.999 68.4196L259.188 67.4375ZM241.688 59.5625L240.98 60.2696L240.984 60.2735L241.688 59.5625ZM238.688 35.0625L239.563 35.5462L239.565 35.5414L238.688 35.0625ZM247.25 27.3125L247.693 28.2088L247.697 28.2069L247.25 27.3125ZM277.75 25.625L277.562 26.6073L277.564 26.6076L277.75 25.625ZM289.125 28.9375L290.125 28.9406L290.127 28.2922L289.536 28.0258L289.125 28.9375ZM289.062 49.3125V50.3125H290.059L290.062 49.3156L289.062 49.3125ZM274.312 49.3125L273.335 49.522L273.504 50.3125H274.312V49.3125ZM272.438 40.5625L273.415 40.353L273.331 39.9613L273 39.7359L272.438 40.5625ZM257.938 46.6875L258.795 46.173L258.792 46.1676L257.938 46.6875ZM261.75 49.5L262.149 48.5829L262.149 48.5829L261.75 49.5ZM268.562 51.625L268.346 52.6012L268.346 52.6013L268.562 51.625ZM285.938 58.75L285.32 59.5366L285.324 59.5398L285.938 58.75ZM284.625 88.5L285.257 89.2749L285.258 89.2743L284.625 88.5ZM263.875 93.3125C258.601 93.3125 253.691 92.8387 249.14 91.8958L248.735 93.8542C253.434 94.828 258.482 95.3125 263.875 95.3125V93.3125ZM249.151 91.898C244.628 90.9112 240.552 89.5782 236.918 87.9042L236.082 89.7208C239.865 91.4635 244.081 92.8388 248.724 93.852L249.151 91.898ZM237.5 88.8006L237.25 67.7381L235.25 67.7619L235.5 88.8244L237.5 88.8006ZM236.25 68.75H251.062V66.75H236.25V68.75ZM250.093 67.9969L252.593 77.8094L254.532 77.3156L252.032 67.5031L250.093 67.9969ZM253.036 78.4128C254.008 79.0142 255.22 79.5243 256.647 79.957L257.228 78.043C255.905 77.6424 254.867 77.1942 254.089 76.7122L253.036 78.4128ZM256.674 79.9648C258.159 80.3696 259.898 80.5625 261.875 80.5625V78.5625C260.019 78.5625 258.466 78.3804 257.201 78.0352L256.674 79.9648ZM261.875 80.5625C265.432 80.5625 268.159 80.0959 269.771 78.937L268.604 77.313C267.55 78.0708 265.401 78.5625 261.875 78.5625V80.5625ZM269.771 78.937C271.328 77.8181 272.188 76.3244 272.188 74.5H270.188C270.188 75.5923 269.714 76.5152 268.604 77.313L269.771 78.937ZM272.188 74.5C272.188 72.644 271.215 71.0669 269.551 69.7731L268.324 71.3519C269.66 72.3914 270.188 73.4393 270.188 74.5H272.188ZM269.538 69.7625C268.653 69.0993 267.339 68.5169 265.68 67.9852C264.003 67.4477 261.898 66.9388 259.376 66.4554L258.999 68.4196C261.477 68.8945 263.497 69.3856 265.07 69.8898C266.661 70.3997 267.722 70.9007 268.337 71.3625L269.538 69.7625ZM259.379 66.4559C251.56 64.9334 245.944 62.3657 242.391 58.8515L240.984 60.2735C244.931 64.176 250.981 66.8583 258.996 68.4191L259.379 66.4559ZM242.395 58.8554C238.843 55.3037 237.062 50.8962 237.062 45.5625H235.062C235.062 51.3955 237.032 56.3213 240.98 60.2696L242.395 58.8554ZM237.062 45.5625C237.062 41.8879 237.899 38.5559 239.563 35.5462L237.812 34.5788C235.976 37.9024 235.062 41.5704 235.062 45.5625H237.062ZM239.565 35.5414C241.198 32.5484 243.88 30.0953 247.693 28.2088L246.807 26.4162C242.703 28.4464 239.677 31.1599 237.81 34.5836L239.565 35.5414ZM247.697 28.2069C251.507 26.302 256.669 25.3125 263.25 25.3125V23.3125C256.498 23.3125 250.993 24.323 246.803 26.4181L247.697 28.2069ZM263.25 25.3125C268.276 25.3125 273.046 25.7451 277.562 26.6073L277.938 24.6427C273.287 23.7549 268.391 23.3125 263.25 23.3125V25.3125ZM277.564 26.6076C282.143 27.4739 285.852 28.5592 288.714 29.8492L289.536 28.0258C286.481 26.6491 282.607 25.5261 277.936 24.6424L277.564 26.6076ZM288.125 28.9344L288.063 49.3094L290.062 49.3156L290.125 28.9406L288.125 28.9344ZM289.062 48.3125H274.312V50.3125H289.062V48.3125ZM275.29 49.103L273.415 40.353L271.46 40.772L273.335 49.522L275.29 49.103ZM273 39.7359C270.841 38.2658 268.196 37.5625 265.125 37.5625V39.5625C267.888 39.5625 270.117 40.1925 271.875 41.3891L273 39.7359ZM265.125 37.5625C262.254 37.5625 259.941 38.0693 258.388 39.2718L259.612 40.8532C260.642 40.0557 262.413 39.5625 265.125 39.5625V37.5625ZM258.388 39.2718C256.861 40.4542 256.062 42.0335 256.062 43.9375H258.062C258.062 42.6748 258.556 41.6708 259.612 40.8532L258.388 39.2718ZM256.062 43.9375C256.062 45.0409 256.431 46.136 257.083 47.2074L258.792 46.1676C258.277 45.3224 258.062 44.5841 258.062 43.9375H256.062ZM257.08 47.202C257.865 48.5105 259.366 49.5541 261.351 50.4171L262.149 48.5829C260.3 47.7793 259.26 46.9478 258.795 46.173L257.08 47.202ZM261.351 50.4171C263.34 51.2819 265.675 52.0077 268.346 52.6012L268.779 50.6488C266.2 50.0756 263.993 49.3848 262.149 48.5829L261.351 50.4171ZM268.346 52.6013C275.987 54.2946 281.613 56.6267 285.32 59.5366L286.555 57.9634C282.512 54.79 276.555 52.3721 268.779 50.6487L268.346 52.6013ZM285.324 59.5398C288.936 62.345 290.812 66.6398 290.812 72.625H292.812C292.812 66.1935 290.772 61.2383 286.551 57.9602L285.324 59.5398ZM290.812 72.625C290.812 79.0181 288.532 84.0152 283.992 87.7257L285.258 89.2743C290.302 85.1515 292.812 79.5653 292.812 72.625H290.812ZM283.993 87.7251C279.49 91.3988 272.835 93.3125 263.875 93.3125V95.3125C273.082 95.3125 280.26 93.3512 285.257 89.2749L283.993 87.7251Z" fill="black" mask="url(#path-1-outside-1_1_3)"/>
</g>
<defs>
<filter id="filter0_d_1_3" x="0.5" y="0.9375" width="296.312" height="102.375" filterUnits="userSpaceOnUse" color-interpolation-filters="sRGB">
<feFlood flood-opacity="0" result="BackgroundImageFix"/>
<feColorMatrix in="SourceAlpha" type="matrix" values="0 0 0 0 0 0 0 0 0 0 0 0 0 0 0 0 0 0 127 0" result="hardAlpha"/>
<feOffset dy="4"/>
<feGaussianBlur stdDeviation="2"/>
<feComposite in2="hardAlpha" operator="out"/>
<feColorMatrix type="matrix" values="0 0 0 0 0 0 0 0 0 0 0 0 0 0 0 0 0 0 0.25 0"/>
<feBlend mode="normal" in2="BackgroundImageFix" result="effect1_dropShadow_1_3"/>
<feBlend mode="normal" in="SourceGraphic" in2="effect1_dropShadow_1_3" result="shape"/>
</filter>
</defs>
</svg>
